<?xml version="1.0" standalone="no"?> <!DOCTYPE svg PUBLIC "-//W3C//DTD SVG 1.0//EN" "http://www.w3.org/TR/2001/REC-SVG-20010904/DTD/svg10.dtd" > <svg xmlns="http://www.w3.org/2000/svg" width="100%" height="100%">
<defs >
<font id="Nilland-Black" horiz-adv-x="485" ><font-face
    font-family="Nilland-Black"
    units-per-em="1000"
    panose-1="2 0 10 3 4 0 0 2 0 4"
    ascent="969"
    descent="-200"
    alphabetic="0" />
<missing-glyph horiz-adv-x="1000" />
<glyph unicode=" " glyph-name="space" horiz-adv-x="278" />
<glyph unicode="!" glyph-name="exclam" horiz-adv-x="278" d="M183 711H67V465L80 148H170L183 462V711ZM185 -32V86H65V-32H185Z" />
<glyph unicode="&quot;" glyph-name="quotedbl" horiz-adv-x="312" d="M279 583V722H159V584L176 428H262L279 583ZM123 583V722H3V584L20 428H106L123 583Z" />
<glyph unicode="#" glyph-name="numbersign" horiz-adv-x="741" d="M619 178V287H494L521 417H619V526H544L586 730H474L432 526H309L351 730H239L197 526H50V417H174L147 287H50V178H125L83 -25H195L237 178H360L318 -25H430L472 178H619ZM409 417L382 287H259L286
417H409Z" />
<glyph unicode="$" glyph-name="dollar" horiz-adv-x="566" d="M514 169Q514 260 461 319Q439 344 403 361T318 392V573Q324 569 329 565T340 556Q354 541 363 515T374 432H486Q483 515 466 564T411 642Q368 676 318 689V722H208V690Q146 678 100 642Q28 588 28
505Q28 463 41 428T81 364Q103 341 135 326T208 299V74Q192 79 177 88T139 120L58 39Q98 2 134 -15T208 -38V-117H318V-37Q387 -26 439 16Q514 77 514 169ZM208 420Q183 430 171 441Q145 461 145 505Q145 539 174 562Q189 574 208 580V420ZM402 175Q402 129 366
97Q347 80 318 72V274Q360 259 373 246Q402 219 402 175Z" />
<glyph unicode="%" glyph-name="percent" horiz-adv-x="937" d="M842 177Q842 224 833 262T803 330Q780 362 748 376T675 391Q635 391 603 377T548 330Q527 301 518 263T508 177Q508 130 517 91T547 23Q570 -8 602 -22T675 -37Q725 -37 757 -18T808 31T834 100T842
177ZM738 177Q738 142 733 118T719 79Q705 55 676 55Q647 55 633 79Q625 94 620 117T614 176Q614 241 633 274Q648 299 675 299Q704 299 719 274Q727 259 732 236T738 177ZM739 711H651H643H232Q204 722 168 722Q128 722 96 708T41 662Q20 633 11 595T1 509Q1 462
10 423T40 355Q63 324 95 310T169 295Q210 295 242 309T296 356Q316 385 325 423T335 509Q335 538 330 571T311 635H573L103 -32H216L739 711ZM231 509Q231 474 226 450T212 411Q198 387 169 387Q140 387 126 412Q117 427 112 450T107 508Q107 542 112 565T126
605Q140 630 169 630Q198 630 212 605Q221 590 226 567T231 509Z" />
<glyph unicode="&amp;" glyph-name="ampersand" horiz-adv-x="775" d="M690 264V373H516Q508 326 500 297T480 241Q477 233 474 227T468 213L351 375Q374 385 394 397T434 423Q467 449 485 481T503 554Q503 628 446 676Q393 722 317 722Q239 722 184 674Q125 624
125 549Q125 524 134 499T160 448Q165 441 169 434T179 421Q118 394 78 352Q49 322 35 284T20 200Q20 109 87 34Q122 -5 169 -23T274 -42Q337 -42 397 -14Q434 3 463 30L508 -33L636 -28L538 115Q549 129 557 144T573 173Q591 213 606 264H690ZM393 555Q393 541
386 528T361 502Q333 482 287 464Q282 472 276 480T264 498Q249 520 244 533T239 553Q239 581 259 596Q283 614 315 614Q349 614 373 596Q393 580 393 555ZM397 121Q384 109 374 101T353 88Q319 71 281 71Q221 71 181 111Q140 151 140 210Q140 251 171 283Q184
296 202 308T245 331L397 121Z" />
<glyph unicode="&apos;" glyph-name="quotesingle" horiz-adv-x="243" d="M170 583V722H50V584L67 428H153L170 583Z" />
<glyph unicode="(" glyph-name="parenleft" horiz-adv-x="393" d="M361 -250V-140Q302 -105 268 -69T214 12Q173 102 173 239Q173 376 214 466Q234 510 268 546T361 618V728Q311 706 273 683T206 635T156 582T118 523Q56 402 56 239Q56 76 118 -45Q134 -77 155
-104T206 -157T273 -205T361 -250Z" />
<glyph unicode=")" glyph-name="parenright" horiz-adv-x="393" d="M298 239Q298 402 236 523Q220 554 199 582T148 635T81 683T-7 728V618Q52 583 86 547T140 466Q181 376 181 239Q181 102 140 12Q120 -32 86 -68T-7 -140V-250Q43 -228 81 -205T148 -157T198
-105T236 -45Q298 76 298 239Z" />
<glyph unicode="*" glyph-name="asterisk" horiz-adv-x="544" d="M491 486L454 604Q394 585 367 575T334 559Q334 558 294 540Q296 562 297 572T299 582Q304 590 305 619T307 711H183Q183 649 184 620T191 582Q191 582 192 572T196 540Q156 558 156 559Q150 564
123 574T36 604L-1 486Q52 469 79 462T118 454Q121 454 132 453T166 446Q140 416 140 416Q133 414 114 392T54 316L153 242Q191 292 207 318T224 355Q224 356 245 389Q266 356 266 354Q266 344 282 318T337 242L436 316Q396 370 377 392T350 416Q349 416 324 446Q347
451 359 452T375 454Q386 454 412 461T491 486Z" />
<glyph unicode="+" glyph-name="plus" horiz-adv-x="740" d="M627 268V376H387V615H279V376H39V268H279V26H387V268H627Z" />
<glyph unicode="," glyph-name="comma" horiz-adv-x="278" d="M185 -18V95H65V-32H88Q87 -47 86 -53T84 -62T79 -61T56 -58V-159Q103 -157 125 -147T162 -115Q175 -95 180 -71T185 -18Z" />
<glyph unicode="-" glyph-name="hyphen" horiz-adv-x="382" d="M340 219V328H2V219H340Z" />
<glyph unicode="." glyph-name="period" horiz-adv-x="278" d="M200 -32V96H80V-32H200Z" />
<glyph unicode="/" glyph-name="slash" horiz-adv-x="312" d="M324 711H211L-44 -50H69L324 711Z" />
<glyph unicode="0" glyph-name="zero" horiz-adv-x="589" d="M516 340Q516 425 502 494T458 614Q395 722 266 722Q136 722 73 614Q43 563 29 494T15 340Q15 255 29 187T73 67Q136 -41 265 -41Q395 -41 458 67Q488 118 502 186T516 340ZM401 340Q401 271 391 219T363
130Q346 95 322 80T266 65Q234 65 210 80T168 130Q150 167 140 219T130 340Q130 410 140 462T168 551Q185 586 209 601T265 616Q297 616 321 601T363 551Q381 514 391 462T401 340Z" />
<glyph unicode="1" glyph-name="one" horiz-adv-x="589" d="M424 -32V77H328V716L116 687V592H212V77H116V-32H424Z" />
<glyph unicode="2" glyph-name="two" horiz-adv-x="589" d="M487 193H379V77H145Q152 100 162 121T189 165Q233 226 338 291Q375 314 403 338T448 388Q466 414 474 446T483 514Q483 559 469 597T423 664Q393 694 354 708T268 722Q216 722 172 702T80 631L158 552Q173
571 186 583T213 603T239 613T269 616Q310 616 340 588Q368 558 368 514Q368 465 344 438Q319 405 262 371Q196 331 149 286T75 188Q50 141 35 97T22 12L25 -32H485L487 193Z" />
<glyph unicode="3" glyph-name="three" horiz-adv-x="589" d="M505 188Q505 230 494 264T456 327Q431 354 401 368Q434 396 450 433T466 514Q466 602 407 663Q348 722 257 722Q212 722 174 708T106 665Q77 635 62 591T45 475H158Q158 503 160 522T166 554T174
575T185 590Q209 616 254 616Q277 616 294 609T324 589Q351 560 351 516Q351 466 319 437Q304 423 284 417T231 407L185 402V301L262 303Q293 304 316 296T357 272T382 237T391 189Q391 134 355 100Q318 65 260 65Q231 65 205 77T143 124L58 52Q112 -1 159 -21T258
-41Q310 -41 354 -26T434 22Q505 87 505 188Z" />
<glyph unicode="4" glyph-name="four" horiz-adv-x="589" d="M518 167V271H407V717H314L17 256L-37 169L69 167H299V45V-32H488V77H407V167H518ZM299 271H148L299 510V271Z" />
<glyph unicode="5" glyph-name="five" horiz-adv-x="589" d="M512 220Q512 326 446 395Q380 466 280 466Q219 466 166 437L181 597H394H472V711H81L45 310Q67 302 74 299T85 294Q86 293 88 292T93 288T104 278T123 259Q138 280 150 294T171 318T187 333T203 343Q234
360 268 360Q327 360 362 322Q379 303 388 278T398 219Q398 183 388 155T359 106Q340 86 317 76T261 65Q233 65 199 79T133 124L68 48Q120 -2 165 -21T260 -41Q372 -41 442 32Q512 106 512 220Z" />
<glyph unicode="6" glyph-name="six" horiz-adv-x="589" d="M509 216Q509 323 449 392Q386 463 289 463Q250 463 216 451T151 418Q160 499 185 549Q202 583 228 599T293 616Q303 616 313 614T333 606T355 589T382 559L455 644Q410 689 371 705T288 722Q163 722
96 611Q64 557 49 485T33 322Q33 232 47 164T94 50Q160 -41 278 -41Q382 -41 446 32Q509 104 509 216ZM395 212Q395 175 387 149T362 102Q330 65 277 65Q223 65 187 114Q168 140 158 180T147 278V283Q176 316 207 333Q247 357 282 357Q334 357 363 321Q378 302
386 276T395 212Z" />
<glyph unicode="7" glyph-name="seven" horiz-adv-x="589" d="M492 623V711H32V496H142V597H346Q311 546 285 488T239 365Q227 324 218 270T202 165T193 81T190 46V-32H386V77H306Q310 213 351 348Q374 423 408 490T492 623Z" />
<glyph unicode="8" glyph-name="eight" horiz-adv-x="589" d="M520 187Q520 258 481 312Q470 327 457 339T427 361Q464 387 481 426T499 514Q499 605 430 664Q365 722 265 722Q165 722 99 665Q32 604 32 513Q32 441 72 392Q84 376 104 361Q90 352 78 342T54 317Q10
261 10 188Q10 88 84 22Q157 -41 266 -41Q375 -41 447 21Q520 85 520 187ZM387 513Q387 463 357 438Q341 424 319 417T265 410Q234 410 212 417T174 438Q160 451 152 468T144 511Q144 557 177 586Q194 600 216 608T269 616Q322 616 355 586Q387 557 387 513ZM406
190Q406 134 369 100Q331 65 265 65Q230 65 205 74T162 100Q125 132 125 191Q125 244 161 274Q179 289 205 297T266 306Q301 306 326 298T370 274Q406 244 406 190Z" />
<glyph unicode="9" glyph-name="nine" horiz-adv-x="589" d="M497 359Q497 449 483 517T436 631Q372 722 254 722Q150 722 85 648Q21 575 21 464Q21 413 35 369T81 290Q144 218 241 218Q279 218 313 229T379 262Q370 181 345 131Q328 96 303 81T243 65Q220 65
200 75T151 117L76 36Q122 -8 162 -24T248 -41Q311 -41 358 -12T437 73Q468 127 482 198T497 359ZM383 397Q355 366 322 347Q283 324 249 324Q198 324 168 360Q153 379 145 404T136 463Q136 503 144 531T169 578Q199 616 254 616Q310 616 345 568Q363 543 373 503T383
403V397Z" />
<glyph unicode=":" glyph-name="colon" horiz-adv-x="278" d="M190 348V476H70V348H190ZM190 -32V96H70V-32H190Z" />
<glyph unicode=";" glyph-name="semicolon" horiz-adv-x="278" d="M190 348V476H70V348H190ZM185 -18V95H65V-32H88Q87 -47 86 -53T84 -62T79 -61T56 -58V-159Q103 -157 125 -147T162 -115Q175 -95 180 -71T185 -18Z" />
<glyph unicode="&lt;" glyph-name="less" horiz-adv-x="740" d="M627 29V148L215 320L627 492V611L39 361V279L627 29Z" />
<glyph unicode="=" glyph-name="equal" horiz-adv-x="740" d="M632 381V489H44V381H632ZM632 241V349H44V241H632Z" />
<glyph unicode="&gt;" glyph-name="greater" horiz-adv-x="740" d="M635 279V361L47 611V492L458 320L47 148V29L635 279Z" />
<glyph unicode="?" glyph-name="question" horiz-adv-x="497" d="M438 506Q438 587 380 653Q350 688 309 705T218 722Q167 722 126 706T54 656Q25 624 12 582T-2 473H109Q109 525 116 548T138 584Q167 613 214 613Q263 613 294 582Q324 550 324 507Q324 475 315
456T289 426Q262 408 217 408Q209 408 200 409T176 412L137 397L160 152H242L255 298Q334 303 385 361Q438 423 438 506ZM259 -32V96H139V-32H259Z" />
<glyph unicode="@" glyph-name="at" horiz-adv-x="666" d="M613 441Q613 543 538 618Q463 694 349 694Q229 694 144 603Q61 512 61 396Q61 275 142 185Q224 94 355 94Q444 94 520 138L494 184Q465 169 426 160T350 151Q264 151 190 219Q119 288 119 393Q119 495
188 566T351 637Q438 637 497 578T556 443Q556 371 515 318Q494 289 476 278T444 267L443 268V270Q443 274 444 277L504 559H431L426 535Q421 541 415 545T401 554Q368 572 339 572Q254 572 204 501Q156 432 156 353Q156 283 194 244Q234 206 283 206Q325 206 359
229Q367 234 373 239T385 250Q388 235 396 224Q401 216 409 210T428 204Q463 204 494 222T555 276Q613 346 613 441ZM403 442Q403 386 369 325Q352 295 334 282T296 269Q272 269 250 288Q240 297 235 311T229 349Q229 413 260 463Q291 511 338 511Q367 511 384
491Q403 471 403 442Z" />
<glyph unicode="A" glyph-name="A" horiz-adv-x="741" d="M730 -32V77H637L452 602H524V711H277L255 644L58 77H-37V-32H169V43L232 226H460L513 77H441V-32H730ZM423 335H270L347 559L423 335Z" />
<glyph unicode="B" glyph-name="B" horiz-adv-x="625" d="M556 194Q556 268 513 321Q490 347 460 365Q476 378 487 393Q522 438 522 505Q522 553 506 591T457 658Q425 686 382 698T286 711H-15V602H72V45V-33L286 -32Q346 -32 394 -18T481 25Q519 55 537 97T556
194ZM402 507Q402 463 370 437Q336 409 274 409H192V602H283Q314 602 335 595T373 575Q402 551 402 507ZM436 190Q436 161 427 142T399 108Q380 94 352 86T281 77H192V300H283Q325 300 354 293T401 271Q418 258 427 239T436 190Z" />
<glyph unicode="C" glyph-name="C" horiz-adv-x="833" d="M759 235L656 295Q627 214 601 174T545 114Q485 71 402 71Q291 71 221 146Q150 222 150 340Q150 459 220 535Q289 609 398 609Q475 609 541 567Q571 547 590 517T621 430H726V651H616V647Q599 661 582
671T545 690Q472 722 400 722Q236 722 133 615Q81 561 56 492T30 340Q30 256 55 187T133 64Q236 -42 401 -42Q516 -42 608 17Q655 48 691 99T759 235Z" />
<glyph unicode="D" glyph-name="D" horiz-adv-x="786" d="M700 339Q700 503 602 607Q551 661 477 686T306 711H-17V602H77V45V-32H305Q410 -32 487 -5T613 82Q700 193 700 339ZM580 339Q580 270 563 222T514 142T433 94T313 77H197V602H311Q379 602 428 585T511
534T562 453T580 339Z" />
<glyph unicode="E" glyph-name="E" horiz-adv-x="670" d="M591 -32V77H513H190V293H472V402H190V602H481V482H590V711H-17V602H70V45V-32H591Z" />
<glyph unicode="F" glyph-name="F" horiz-adv-x="589" d="M564 481V711H-17V602H71V77H-17V-32H191V45V295L441 294V404H191V602H455V481H564Z" />
<glyph unicode="G" glyph-name="G" horiz-adv-x="879" d="M770 338H368V229H641Q623 164 569 123Q534 97 493 84T404 71Q285 71 212 146Q175 184 157 231T138 340Q138 460 209 534Q279 609 391 609Q468 609 535 566Q567 546 589 514T629 425H730V671H621V642Q606
654 589 664T554 684Q475 722 390 722Q230 722 124 613T18 340Q18 173 126 65Q234 -42 403 -42Q562 -42 665 52Q718 101 743 168T770 338Z" />
<glyph unicode="H" glyph-name="H" horiz-adv-x="764" d="M699 602V711H409V602H497V409H190V634V711H-13V602H70V77H-12V-32H190V45V301H497V77H410V-32H617V45V602H699Z" />
<glyph unicode="I" glyph-name="I" horiz-adv-x="312" d="M206 738V866H86V738H206ZM293 -32V77H207V634V711H87V634V77H2V-32H293Z" />
<glyph unicode="J" glyph-name="J" horiz-adv-x="301" d="M295 602V711H-24V602H78V-54Q78 -82 73 -96T63 -116Q60 -119 55 -121T40 -126T14 -129T-28 -131L-33 -243Q37 -243 79 -232T148 -195T186 -132T198 -48V602H295Z" />
<glyph unicode="K" glyph-name="K" horiz-adv-x="647" d="M632 -32V77H541L282 361L526 602H618V711H480L425 657L191 426V602H284V711H-19V602H71V45V-32H285V77H191V282L424 24L472 -32H632Z" />
<glyph unicode="L" glyph-name="L" horiz-adv-x="566" d="M530 -32V252H412V77H196L197 711H-16V602H76V77H-16V-32H530Z" />
<glyph unicode="M" glyph-name="M" horiz-adv-x="948" d="M868 -32V77H783V602H868V711H640L428 194L214 711H-13V602H75V45V-32H267V77H186V488L396 -32H450L663 487V45V-32H868Z" />
<glyph unicode="N" glyph-name="N" horiz-adv-x="786" d="M730 602V711H531V634V184Q462 292 393 394Q344 468 294 544T188 711H-22V602H69V45V-32H276V77H180V510L540 -41H642V602H730Z" />
<glyph unicode="O" glyph-name="O" horiz-adv-x="867" d="M766 340Q766 504 660 613T392 722Q230 722 124 613T18 340Q18 176 124 67T392 -42Q554 -42 660 67T766 340ZM646 340Q646 222 574 146Q503 71 392 71Q282 71 210 147Q138 222 138 340Q138 458 210 533Q282
609 392 609Q503 609 574 534Q646 457 646 340Z" />
<glyph unicode="P" glyph-name="P" horiz-adv-x="613" d="M565 479Q565 533 548 575T495 650T412 696T307 711H-16V602H74V77H-16V-32H194V45V248H317Q371 248 416 263T496 310T548 385T565 479ZM445 473Q445 441 436 421T411 387Q393 373 366 365T297 357H194V602H297Q342
602 370 594T413 572Q427 559 436 536T445 473Z" />
<glyph unicode="Q" glyph-name="Q" horiz-adv-x="867" d="M766 340Q766 504 660 613T392 722Q230 722 124 613T18 340Q18 176 124 67Q167 23 219 -2Q212 -6 205 -12T180 -30L237 -112Q266 -92 277 -86T298 -76Q317 -70 332 -70Q342 -70 372 -81T439 -110T514 -146T578
-183L643 -87Q619 -73 585 -56T517 -23Q599 4 660 67Q766 176 766 340ZM646 340Q646 222 574 146Q503 71 392 71Q282 71 210 147Q138 222 138 340Q138 458 210 533Q282 609 392 609Q503 609 574 534Q646 457 646 340Z" />
<glyph unicode="R" glyph-name="R" horiz-adv-x="636" d="M620 -32V77H522L410 322Q440 332 465 347T508 384Q531 411 542 444T553 516Q553 601 490 657Q459 685 421 698T337 711H-29V602H71V-33H191V307H288L441 -32H620ZM433 511Q433 486 426 470T404 442Q389
430 366 423T307 416H191V602H325Q353 602 372 595T406 576Q433 553 433 511Z" />
<glyph unicode="S" glyph-name="S" horiz-adv-x="602" d="M530 178Q530 273 470 329Q441 357 390 378T269 417Q196 435 159 461Q129 480 129 522Q129 557 158 582Q189 609 240 609Q277 609 302 605T348 585Q357 578 363 568T372 547T378 526T380 509V464H498Q498
464 498 479T495 515T489 557T479 592Q471 609 463 620T442 645Q421 668 401 680T355 703Q327 715 299 718T243 722Q149 722 82 667Q13 609 13 524Q13 434 72 379Q101 353 143 335T241 302Q295 289 328 276T380 249Q410 225 410 184Q410 136 375 104Q339 71 281
71Q214 71 167 114Q121 156 121 209V265H11V-32H121V9Q140 -4 158 -13Q218 -42 280 -42Q384 -42 456 20Q530 83 530 178Z" />
<glyph unicode="T" glyph-name="T" horiz-adv-x="636" d="M596 513V711H-8V433H102V602H234V77H141V-32H354V602H486V513H596Z" />
<glyph unicode="U" glyph-name="U" horiz-adv-x="717" d="M681 602V711H474V634V195Q474 160 465 138T440 102Q423 88 397 80T329 71Q291 71 264 79T220 104Q203 118 194 140T185 197V602H271V711H-22V602H65V203Q65 146 82 100T136 21Q172 -12 221 -27T330 -42Q390
-42 439 -27T524 21Q560 55 577 100T594 203V602H681Z" />
<glyph unicode="V" glyph-name="V" horiz-adv-x="728" d="M711 602V711H428V602H497L336 165L153 645L131 711H-54V602H44L287 -39H378L613 602H711Z" />
<glyph unicode="W" glyph-name="W" horiz-adv-x="1052" d="M998 602V711H715V602H792L677 190L554 643L534 711H413L398 641L282 191L153 643L135 711H-52V602H41L233 -39H328L473 525L628 -39H720L905 602H998Z" />
<glyph unicode="X" glyph-name="X" horiz-adv-x="728" d="M681 -32V77H572L397 351L555 602H659V711H367V602H425L330 454L206 651L166 711H-11V602H97L264 342L97 77H-11V-32H292V77H229L330 239L468 21L500 -32H681Z" />
<glyph unicode="Y" glyph-name="Y" horiz-adv-x="670" d="M675 602V711H388V602H450L331 415L173 666L144 711H-30V602H72L266 297V77H172V-32H386V45V297L580 602H675Z" />
<glyph unicode="Z" glyph-name="Z" horiz-adv-x="613" d="M553 -32V207H443V77H156L543 625V711H17V602H94H381L-5 55V-32H553Z" />
<glyph unicode="[" glyph-name="bracketleft" horiz-adv-x="382" d="M361 -233V-124H201V602H361V711H85V-233H361Z" />
<glyph unicode="\" glyph-name="backslash" horiz-adv-x="312" d="M326 -46L70 711H-45L211 -46H326Z" />
<glyph unicode="]" glyph-name="bracketright" horiz-adv-x="382" d="M260 711H-17V602H143L144 -124H-17V-233H259L260 711Z" />
<glyph unicode="^" glyph-name="asciicircum" horiz-adv-x="728" d="M590 425L328 740L66 425L143 355L328 576L513 355L590 425Z" />
<glyph unicode="_" glyph-name="underscore" horiz-adv-x="555" d="M532 -252V-138H-32V-252H532Z" />
<glyph unicode="`" glyph-name="grave" horiz-adv-x="370" d="M299 504L157 723H18L186 504H299Z" />
<glyph unicode="a" glyph-name="a" horiz-adv-x="566" d="M532 -32V77H453V352Q453 392 439 424T395 479Q366 499 329 508T245 518Q224 518 196 511T143 496T101 480T83 473L119 384Q130 388 145 393T178 404T213 413T243 417Q269 417 287 413T317 400Q326 394
331 383T337 352V290Q328 294 319 296T302 301Q263 311 228 311Q183 311 146 300T79 262Q19 211 19 133Q19 61 70 12Q121 -39 198 -39Q235 -39 270 -27T337 4V-32H532ZM337 124Q313 100 281 84Q243 65 210 65Q190 65 177 70T155 84Q136 104 136 129Q136 162 161
184Q172 195 190 201T237 208Q269 208 296 198Q316 191 337 180V124Z" />
<glyph unicode="b" glyph-name="b" horiz-adv-x="683" d="M605 245Q605 363 529 440Q452 518 336 518Q281 518 223 490Q203 480 184 464V711H-18V602H68V45V-32H184V12Q194 4 203 -2T224 -14Q277 -39 331 -39Q453 -39 529 41Q605 120 605 245ZM488 243Q488 164
445 115Q403 68 335 68Q270 68 227 114Q206 136 195 167T183 241Q183 316 229 364Q273 411 337 411Q403 411 445 365Q488 317 488 243Z" />
<glyph unicode="c" glyph-name="c" horiz-adv-x="566" d="M521 145L421 188Q402 144 388 124T357 90Q341 78 322 72T276 65Q208 65 168 110Q148 133 137 163T126 236Q126 315 167 362Q206 407 269 407Q316 407 352 378Q367 367 377 343T389 261H495V475H403Q374
498 340 508T269 518Q157 518 82 435Q9 355 9 236Q9 114 83 34T275 -46Q355 -46 417 -3Q449 19 473 52T521 145Z" />
<glyph unicode="d" glyph-name="d" horiz-adv-x="659" d="M623 -32V77H537V711H421V634V464Q403 479 381 490Q328 518 267 518Q153 518 78 437Q4 357 4 236Q4 119 80 40T270 -39Q329 -39 383 -13Q393 -8 402 -2T421 12V-32H623ZM422 239Q422 163 379 115Q337 68
270 68Q207 68 162 116T117 236Q117 312 161 362Q206 411 268 411Q331 411 376 362Q422 313 422 239Z" />
<glyph unicode="e" glyph-name="e" horiz-adv-x="613" d="M552 193Q547 283 528 340T471 439Q398 518 281 518Q163 518 85 438Q8 358 8 236Q8 116 86 35Q165 -46 284 -46Q305 -46 335 -39T393 -23T441 -7T461 1L431 102Q419 97 401 90T363 76T324 65T292 60Q219
60 171 109Q137 146 127 193H552ZM423 302H133Q144 336 167 362Q210 410 277 410Q342 410 381 371Q410 342 423 302Z" />
<glyph unicode="f" glyph-name="f" horiz-adv-x="278" d="M360 568Q352 615 341 640T311 683Q291 703 267 712T213 722Q146 722 105 675Q84 652 74 623T64 558V505H-9V396H64V13L66 -32H273V77H180V396H273V505H180V568Q180 592 187 602T212 613Q220 613 224 611T232
607Q235 604 239 595T254 552L360 568Z" />
<glyph unicode="g" glyph-name="g" horiz-adv-x="659" d="M633 396V505H430V459Q408 480 385 491Q332 518 274 518Q163 518 84 434Q7 349 7 232Q7 116 83 39Q159 -39 273 -39Q334 -39 392 -10Q403 -5 412 1T430 14V-16Q430 -49 420 -71T391 -110Q350 -145 279
-145Q268 -145 252 -143T219 -137T186 -130T158 -123L131 -229Q131 -229 147 -233T187 -242T234 -252T274 -256Q392 -256 468 -190Q546 -123 546 -11V396H633ZM430 236Q430 162 385 116Q342 69 276 69Q209 69 167 115Q124 161 124 236Q124 310 169 360Q212 409
276 409Q338 409 384 359Q430 310 430 236Z" />
<glyph unicode="h" glyph-name="h" horiz-adv-x="602" d="M568 -32V77H492V362Q492 432 448 475Q425 498 396 508T333 518Q291 518 255 506T183 473V711H-19V602H67V13H69V-32H261V77H183V343Q197 355 213 366T250 386Q272 397 290 402T326 407Q352 407 364 395T376
356V45V-32H568Z" />
<glyph unicode="i" glyph-name="i" horiz-adv-x="278" d="M191 650Q191 678 170 701Q147 722 119 722Q91 722 68 701Q47 680 47 649Q47 621 68 598Q91 577 119 577Q147 577 170 598Q191 619 191 650ZM272 -32V77H191V505H-8V396H75V13L77 -32H272Z" />
<glyph unicode="j" glyph-name="j" horiz-adv-x="266" d="M193 650Q193 678 172 701Q149 722 121 722Q93 722 70 701Q49 680 49 649Q49 621 70 598Q93 577 121 577Q149 577 172 598Q193 619 193 650ZM193 -59V505H-10V396H77V-46Q77 -69 73 -85T58 -111T26 -124T-28
-126V-235Q38 -240 77 -228T142 -191Q169 -166 181 -133T193 -59Z" />
<glyph unicode="k" glyph-name="k" horiz-adv-x="578" d="M566 -32V77H474L269 248L485 396H558V505H452Q452 505 426 487T360 442T273 382T184 321V711H-19V602H68V13L70 -32H271V77H184V174L420 -32H566Z" />
<glyph unicode="l" glyph-name="l" horiz-adv-x="266" d="M263 -32V77H178V711H-24V602H62V45V-32H263Z" />
<glyph unicode="m" glyph-name="m" horiz-adv-x="937" d="M862 -32V77H788V362Q788 432 743 476Q720 498 691 508T627 518Q600 518 572 510T514 488Q483 472 458 453Q435 488 401 503T325 518Q286 518 250 506T182 474V505H-20V396H66V45V-32H260V77H182V343Q196
355 212 366T248 386Q270 397 288 402T321 407Q337 407 345 404T358 396Q363 391 366 382T369 356V-32H485V339Q517 370 552 387Q589 407 625 407Q650 407 661 395T672 356V45V-32H862Z" />
<glyph unicode="n" glyph-name="n" horiz-adv-x="589" d="M560 -32V77H485V362Q485 432 441 475Q418 498 390 508T327 518Q286 518 249 506T178 473V505H-24V396H62V45V-32H255V77H178V343Q192 355 208 366T244 386Q266 397 284 402T320 407Q346 407 357 395T369
356V45V-32H560Z" />
<glyph unicode="o" glyph-name="o" horiz-adv-x="613" d="M545 236Q545 354 469 436T277 518Q161 518 85 436T9 236Q9 118 85 36T277 -46Q393 -46 469 36T545 236ZM428 236Q428 160 385 112Q343 65 277 65Q211 65 169 112Q126 160 126 236Q126 312 169 360Q211
407 277 407Q343 407 385 360Q428 312 428 236Z" />
<glyph unicode="p" glyph-name="p" horiz-adv-x="659" d="M588 239Q588 298 570 347T514 437Q439 518 326 518Q268 518 214 491Q203 486 193 479T173 464V505H-23V396H57V-167V-244H259V-135H173V4Q181 -3 190 -9T210 -20Q265 -46 323 -46Q440 -46 515 35Q588
117 588 239ZM476 236Q476 196 465 166T433 111Q392 65 324 65Q259 65 215 112Q194 135 183 166T171 238Q171 317 214 363T321 409Q390 409 432 362Q476 315 476 236Z" />
<glyph unicode="q" glyph-name="q" horiz-adv-x="659" d="M628 402V511H424V466Q407 480 385 491Q331 518 273 518Q160 518 84 436Q10 354 10 238Q10 114 84 34Q122 -7 170 -26T278 -46Q337 -46 391 -19Q400 -14 408 -9T424 3V-135H340V-244H540V-167V402H628ZM427
238Q427 196 416 165T383 111Q340 65 273 65Q208 65 165 111Q145 134 134 165T123 237Q123 277 134 307T167 362Q211 409 278 409Q344 409 384 363Q427 317 427 238Z" />
<glyph unicode="r" glyph-name="r" horiz-adv-x="440" d="M420 398V503L370 504Q335 505 308 499T247 477Q233 470 219 461T201 449V505H-5V396H85V45V-32H298V77H201V257Q201 299 211 321T239 359Q258 376 289 387T369 398H420Z" />
<glyph unicode="s" glyph-name="s" horiz-adv-x="497" d="M441 127Q441 160 431 188T399 239T337 275T244 299Q206 305 185 312T155 324Q150 328 147 334T143 355Q143 377 160 394Q168 402 181 406T214 411Q237 411 253 405T284 386Q297 375 304 356T313 292H420V491H316Q293
505 267 511T213 518Q139 518 87 475Q32 429 32 353Q32 317 44 287T84 237Q107 220 141 208T220 188Q260 181 283 174T316 159Q323 154 327 146T331 122Q331 110 326 100T306 78Q277 57 235 57Q179 57 148 86Q134 99 126 121T116 196H6V-32H116V-17Q126 -24 136
-28Q178 -47 230 -47Q275 -47 313 -36T380 -2Q441 47 441 127Z" />
<glyph unicode="t" glyph-name="t" horiz-adv-x="289" d="M277 -27V83L186 68H181Q178 72 178 88V396H277V505H178V613L62 610V505H-22V396H62V78Q62 52 68 30T92 -10Q109 -28 131 -35T182 -43L277 -27Z" />
<glyph unicode="u" glyph-name="u" horiz-adv-x="602" d="M571 -32V77H489V505H373V428V138Q347 113 308 93Q266 72 231 72Q185 72 185 120V505H-14V396H69V111Q69 79 79 51T111 2Q133 -20 161 -29T222 -39Q282 -39 336 -15Q346 -10 355 -5T373 5V-32H571Z" />
<glyph unicode="v" glyph-name="v" horiz-adv-x="578" d="M556 396V505H397L372 439L266 151L175 396H226V505H-34V396H54L221 -39H313L473 396H556Z" />
<glyph unicode="w" glyph-name="w" horiz-adv-x="833" d="M781 396V505H621L601 437L517 185L451 396H492V505H249V396H292L224 180L145 437L125 505H-29V396H41L176 -39H275L371 294L469 -39H564L705 396H781Z" />
<glyph unicode="x" glyph-name="x" horiz-adv-x="589" d="M551 -32V77H476L340 244L459 396H539V505H301V396H319L269 333L219 396H240V505H0V396H78L200 244L63 65L-12 -32H270V77H211L270 156L387 13L423 -32H551Z" />
<glyph unicode="y" glyph-name="y" horiz-adv-x="589" d="M562 396V505H301V396H362L274 163L161 440L136 505H-30V396H59L216 12L125 -244H238L480 396H562Z" />
<glyph unicode="z" glyph-name="z" horiz-adv-x="532" d="M468 417V505H37V396H110H308L13 57V-32H467V205H361V77H172L468 417Z" />
<glyph unicode="{" glyph-name="braceleft" horiz-adv-x="370" d="M317 -233V-122Q294 -122 280 -121T257 -118T245 -114T240 -110Q237 -107 233 -92T228 -38V79Q228 117 221 149T197 206Q190 216 183 224T168 239Q176 246 183 254T197 272Q214 297 221 329T228
399V516Q228 554 232 569T240 588Q241 590 245 592T257 596T279 599T317 600V711H269Q229 711 196 699T143 658Q110 610 110 545V408Q110 378 105 357T92 321Q89 316 85 312T73 305T51 300T16 298V180Q37 180 50 178T72 173T85 166T92 157Q100 143 105 122T110
70V-67Q110 -132 143 -180Q163 -209 196 -221T269 -233H317Z" />
<glyph unicode="|" glyph-name="bar" horiz-adv-x="551" d="M306 -256V711H190V-256H306Z" />
<glyph unicode="}" glyph-name="braceright" horiz-adv-x="370" d="M317 180V298Q296 298 283 300T261 305T248 312T241 321Q233 335 228 356T223 408V545Q223 610 190 658Q170 687 137 699T64 711H16V600Q39 600 53 599T76 596T87 592T93 588Q96 585 100 570T105
516V399Q105 361 112 329T136 272Q143 262 150 254T165 239Q157 232 150 224T136 206Q119 181 112 149T105 79V-38Q105 -76 101 -91T93 -110Q91 -112 88 -114T76 -118T54 -121T16 -122V-233H64Q104 -233 137 -221T190 -180Q223 -132 223 -67V70Q223 100 228 121T241
157Q244 162 248 166T260 173T282 178T317 180Z" />
<glyph unicode="~" glyph-name="asciitilde" horiz-adv-x="728" d="M622 324L620 453Q592 433 573 420T540 399T517 385T501 375Q476 361 448 361Q434 361 409 368T346 395Q306 415 271 425T206 436Q148 436 102 409Q83 397 68 386T34 360V226Q62 248 81 262T113
285T134 299T151 309Q177 323 207 323Q221 323 246 315T310 289Q349 269 384 259T450 248Q506 248 553 275Q572 286 587 297T622 324Z" />
</font>
</defs>
</svg>
